<?xml version="1.0" standalone="no"?>
<!DOCTYPE svg PUBLIC "-//W3C//DTD SVG 20010904//EN"
 "http://www.w3.org/TR/2001/REC-SVG-20010904/DTD/svg10.dtd">
<svg version="1.0" xmlns="http://www.w3.org/2000/svg"
 width="300.000000pt" height="300.000000pt" viewBox="0 0 300.000000 300.000000"
 preserveAspectRatio="xMidYMid meet">
<metadata>
Created by potrace 1.10, written by Peter Selinger 2001-2011
</metadata>
<g transform="translate(0.000000,300.000000) scale(0.100000,-0.100000)"
fill="#000000" stroke="none">
<path d="M1420 2555 c-140 -44 -182 -213 -78 -317 20 -20 49 -40 63 -44 l25
-6 0 -178 0 -178 -37 -7 c-21 -3 -58 -18 -82 -31 l-45 -25 -127 127 -128 127
16 30 c10 21 14 48 11 88 -8 109 -87 183 -196 182 -141 -1 -232 -148 -173
-278 40 -89 151 -137 237 -105 27 11 33 6 155 -116 l128 -128 -21 -35 c-12
-19 -27 -55 -33 -78 l-11 -44 -152 -2 -152 -2 -10 31 c-12 37 -64 89 -103 103
-16 6 -52 11 -81 11 -165 0 -247 -202 -132 -328 34 -38 77 -55 137 -55 72 0
132 32 166 90 l25 43 153 0 152 0 6 -41 c3 -22 17 -57 30 -78 l25 -38 -126
-125 c-107 -106 -130 -125 -147 -118 -32 13 -113 11 -148 -4 -39 -17 -92 -71
-106 -109 -17 -44 -13 -114 8 -155 77 -150 282 -148 352 3 22 48 24 104 5 149
l-14 33 127 126 126 125 34 -23 c19 -13 56 -29 82 -36 l49 -13 0 -172 0 -172
-25 -6 c-43 -11 -93 -63 -110 -117 -49 -147 83 -284 235 -245 92 24 145 99
138 197 -5 72 -41 129 -97 155 l-40 19 -1 171 0 170 58 18 c31 9 68 25 82 35
l24 19 81 -81 c44 -45 99 -103 123 -128 l42 -46 -16 -39 c-44 -104 42 -236
163 -251 170 -20 281 178 177 314 -47 62 -146 91 -218 63 -23 -8 -34 0 -149
117 l-124 127 23 44 c13 24 26 59 30 78 l6 34 154 0 c118 0 154 -3 154 -13 0
-20 59 -86 93 -104 41 -21 133 -21 172 -1 69 37 108 99 107 175 0 66 -25 116
-76 157 -35 29 -44 31 -115 31 -70 0 -81 -3 -115 -29 -21 -16 -46 -46 -56 -68
l-17 -39 -151 -2 -151 -2 -6 35 c-4 19 -18 55 -32 79 l-25 44 128 128 129 128
43 -12 c32 -8 53 -8 88 1 62 17 91 38 121 89 98 168 -85 364 -258 277 -58 -29
-109 -113 -109 -181 0 -13 7 -41 16 -64 l17 -41 -125 -124 -124 -125 -65 30
c-35 17 -72 31 -81 31 -17 0 -18 15 -18 178 l0 179 41 19 c55 24 91 80 97 148
8 100 -51 183 -148 205 -53 12 -45 13 -100 -4z m126 -44 c54 -25 84 -74 85
-140 2 -60 -14 -89 -74 -132 -23 -17 -47 -39 -53 -50 -6 -12 -10 -86 -9 -184
1 -181 4 -191 68 -215 18 -7 51 -21 75 -32 25 -11 52 -16 64 -12 27 8 231 212
251 250 12 23 13 39 4 79 -15 73 -2 122 42 166 79 80 200 60 251 -42 25 -49
25 -99 1 -148 -30 -58 -63 -75 -151 -78 -41 -1 -81 -2 -88 -2 -19 -1 -236
-215 -257 -254 -17 -32 -17 -34 9 -85 14 -28 26 -57 26 -64 0 -7 11 -26 25
-41 26 -27 26 -27 163 -27 154 0 165 4 207 71 33 51 86 78 148 74 52 -2 87
-22 121 -69 16 -21 21 -42 21 -89 0 -74 -20 -107 -83 -138 -79 -39 -170 -8
-222 76 -12 19 -32 38 -45 41 -12 3 -84 4 -158 2 -122 -3 -138 -5 -151 -23
-20 -28 -66 -149 -66 -175 0 -14 39 -61 116 -140 102 -104 161 -149 177 -134
2 3 24 7 48 10 98 11 180 -71 175 -174 -5 -117 -134 -180 -241 -118 -68 41
-86 100 -61 209 9 36 -1 49 -136 184 -88 88 -119 113 -140 113 -15 0 -29 -4
-32 -9 -3 -4 -32 -18 -65 -31 -93 -35 -92 -32 -94 -225 l-1 -167 30 -27 c17
-14 44 -38 62 -53 40 -35 56 -91 43 -150 -24 -106 -167 -152 -251 -81 -88 74
-80 187 18 258 28 19 53 42 56 51 10 27 7 324 -4 344 -6 11 -27 26 -48 35 -20
9 -56 25 -80 36 -23 10 -52 19 -64 19 -15 0 -62 -41 -146 -126 l-124 -126 7
-57 c15 -107 -1 -156 -66 -199 -28 -20 -44 -23 -92 -20 -69 5 -103 27 -135 89
-29 55 -25 106 13 155 49 64 105 83 189 64 31 -7 41 -4 73 20 57 41 222 217
228 243 4 14 -4 44 -19 77 -14 30 -26 61 -26 69 0 8 -10 25 -22 38 -21 22 -28
23 -166 23 l-144 0 -34 -37 c-19 -21 -43 -48 -53 -60 -24 -27 -94 -47 -140
-39 -143 23 -170 229 -38 295 39 19 56 22 94 16 48 -7 55 -12 147 -117 25 -28
25 -28 158 -28 144 0 174 8 195 50 25 53 53 130 53 148 0 23 -210 246 -252
268 -20 11 -38 12 -68 5 -22 -5 -43 -9 -45 -10 -3 0 -24 7 -47 15 -108 38
-146 144 -85 235 49 72 130 99 198 63 80 -41 104 -106 84 -226 l-8 -47 109
-111 c59 -61 123 -120 142 -132 l33 -20 58 26 c32 14 63 26 68 26 6 0 22 9 37
21 l26 20 0 179 0 180 -52 41 c-71 55 -90 90 -85 157 8 109 119 170 223 123z"/>
<path d="M1412 2479 c-99 -64 -74 -205 42 -233 91 -22 184 90 142 172 -40 77
-118 103 -184 61z m132 -45 c75 -76 -29 -197 -118 -139 -78 52 -40 165 55 165
26 0 44 -8 63 -26z"/>
<path d="M783 2239 c-43 -27 -66 -65 -66 -109 0 -113 125 -172 207 -99 67 58
66 143 -2 199 -44 36 -92 39 -139 9z m128 -48 c32 -33 37 -67 15 -110 -14 -26
-53 -51 -81 -51 -48 0 -95 52 -95 105 0 40 50 85 95 85 27 0 44 -8 66 -29z"/>
<path d="M2049 2243 c-87 -55 -91 -165 -8 -224 61 -43 148 -18 185 53 28 54 4
134 -49 167 -31 20 -100 22 -128 4z m125 -49 c35 -35 36 -92 2 -131 -19 -22
-32 -28 -66 -28 -34 0 -47 6 -66 28 -54 63 -14 157 66 157 27 0 45 -7 64 -26z"/>
<path d="M1435 1770 c-147 -25 -249 -144 -249 -290 1 -117 71 -225 177 -270
108 -47 254 -16 328 67 58 66 74 110 74 203 0 99 -14 134 -79 202 -48 50 -93
76 -146 84 -19 3 -42 7 -50 8 -8 2 -33 0 -55 -4z m153 -59 c49 -25 107 -87
127 -133 19 -47 20 -148 1 -193 -52 -122 -184 -188 -308 -151 -190 56 -249
286 -108 427 78 78 195 98 288 50z"/>
<path d="M569 1597 c-44 -29 -73 -87 -64 -128 10 -45 60 -97 101 -105 50 -9
82 2 121 44 31 34 34 41 30 88 -2 33 -10 59 -22 70 -57 58 -111 68 -166 31z
m117 -32 c34 -23 49 -69 34 -105 -17 -41 -46 -60 -91 -60 -46 0 -89 45 -89 92
0 66 91 112 146 73z"/>
<path d="M2239 1581 c-41 -36 -44 -42 -44 -89 0 -42 5 -56 29 -81 59 -61 128
-65 184 -10 64 63 52 149 -30 202 -46 29 -90 22 -139 -22z m145 -26 c20 -18
26 -34 26 -65 0 -56 -34 -90 -90 -90 -55 0 -90 34 -90 88 0 82 94 123 154 67z"/>
<path d="M813 969 c-40 -12 -89 -60 -96 -95 -7 -39 9 -87 41 -117 55 -53 124
-52 175 1 67 70 47 170 -42 208 -37 16 -34 16 -78 3z m90 -49 c14 -11 28 -34
32 -51 23 -105 -126 -161 -172 -64 -43 89 63 176 140 115z"/>
<path d="M2060 962 c-19 -9 -45 -32 -57 -51 -72 -107 55 -241 166 -175 99 58
90 185 -16 230 -42 18 -51 18 -93 -4z m109 -48 c51 -43 41 -118 -20 -150 -95
-49 -180 77 -100 148 40 36 80 36 120 2z"/>
<path d="M1455 721 c-127 -25 -142 -186 -23 -244 37 -18 86 -9 126 24 102 83
25 246 -103 220z m86 -60 c21 -21 29 -39 29 -64 0 -77 -99 -119 -157 -65 -28
26 -36 59 -23 95 26 67 101 84 151 34z"/>
<path d="M1086 2434 c-33 -33 -7 -94 41 -94 23 0 53 30 53 53 0 23 -36 57 -59
57 -11 0 -27 -7 -35 -16z m72 -42 c-2 -22 -8 -27 -32 -27 -17 0 -33 7 -40 18
-9 15 -7 22 12 37 32 26 65 11 60 -28z"/>
<path d="M1802 2434 c-30 -20 -29 -59 3 -80 50 -32 103 22 70 72 -18 28 -41
30 -73 8z m66 -42 c-2 -22 -8 -27 -32 -27 -17 0 -33 7 -40 18 -9 15 -7 22 12
37 32 26 65 11 60 -28z"/>
<path d="M1195 2085 c-40 -39 -29 -93 23 -118 39 -19 64 -11 90 27 19 28 21
38 12 61 -22 58 -83 73 -125 30z m99 -17 c23 -32 20 -54 -11 -77 -41 -33 -93
-7 -93 45 0 52 74 75 104 32z"/>
<path d="M1656 2085 c-33 -30 -34 -68 -1 -100 59 -60 151 -4 124 74 -19 55
-78 68 -123 26z m89 -10 c14 -13 25 -31 25 -40 0 -20 -44 -65 -65 -65 -23 0
-55 37 -55 64 0 23 40 66 62 66 5 0 20 -11 33 -25z"/>
<path d="M518 1906 c-18 -13 -24 -52 -10 -72 4 -6 17 -16 28 -22 18 -10 27 -8
48 9 30 24 34 59 8 82 -22 20 -51 21 -74 3z m64 -13 c23 -21 23 -36 -3 -59
-15 -13 -24 -16 -36 -8 -32 20 -38 41 -19 63 23 25 34 26 58 4z"/>
<path d="M2355 1900 c-24 -26 -13 -66 25 -85 29 -15 31 -15 55 9 29 29 31 43
9 74 -19 28 -64 29 -89 2z m66 0 c41 -22 8 -91 -35 -74 -22 8 -31 51 -16 69
15 18 25 19 51 5z"/>
<path d="M870 1775 c-33 -35 -30 -83 7 -113 19 -15 36 -21 53 -17 30 7 70 49
70 73 0 18 -26 62 -44 74 -22 16 -63 7 -86 -17z m92 -12 c38 -35 9 -103 -44
-103 -24 0 -58 35 -58 60 0 26 34 60 62 60 12 0 30 -7 40 -17z"/>
<path d="M1985 1775 c-24 -24 -33 -68 -17 -91 12 -17 55 -44 72 -44 26 0 70
49 70 78 0 35 -43 82 -76 82 -14 0 -36 -11 -49 -25z m87 -12 c36 -32 12 -103
-35 -103 -49 0 -75 64 -40 102 20 22 51 23 75 1z"/>
<path d="M890 1307 c-30 -15 -45 -54 -36 -90 8 -35 56 -60 90 -47 62 23 72
106 16 135 -35 18 -38 18 -70 2z m68 -23 c42 -29 16 -104 -36 -104 -18 0 -62
46 -62 65 0 21 36 55 58 55 10 0 28 -7 40 -16z"/>
<path d="M1988 1299 c-20 -15 -28 -29 -28 -52 0 -37 6 -47 40 -70 33 -23 43
-22 79 9 39 33 41 74 6 109 -29 30 -61 31 -97 4z m86 -18 c25 -27 17 -72 -15
-90 -24 -13 -29 -13 -53 2 -17 12 -26 26 -26 44 0 55 59 83 94 44z"/>
<path d="M530 1147 c-49 -25 -30 -107 25 -107 27 0 55 29 55 58 0 19 -35 62
-49 62 -3 0 -17 -6 -31 -13z m54 -26 c32 -35 -13 -83 -52 -55 -26 18 -28 37
-6 58 20 21 37 20 58 -3z"/>
<path d="M2382 1149 c-35 -13 -48 -53 -28 -84 25 -38 80 -32 97 12 17 45 -25
89 -69 72z m48 -23 c6 -8 10 -25 8 -38 -2 -19 -9 -23 -38 -23 -29 0 -36 4 -38
23 -4 28 14 52 38 52 10 0 23 -7 30 -14z"/>
<path d="M1214 1002 c-18 -12 -44 -56 -44 -73 0 -28 49 -79 75 -79 37 0 78 41
78 78 0 57 -68 103 -109 74z m76 -32 c11 -11 20 -29 20 -40 0 -25 -34 -60 -58
-60 -30 0 -62 29 -62 57 0 57 61 82 100 43z"/>
<path d="M1659 981 c-25 -26 -30 -37 -24 -59 15 -61 76 -88 118 -50 38 34 44
69 15 101 -37 42 -72 45 -109 8z m91 -11 c11 -11 20 -29 20 -40 0 -11 -9 -29
-20 -40 -11 -11 -29 -20 -40 -20 -26 0 -60 34 -60 62 0 52 62 76 100 38z"/>
<path d="M1096 619 c-33 -26 -34 -63 -2 -84 46 -30 102 17 76 64 -19 36 -45
43 -74 20z m54 -13 c6 -8 10 -25 8 -38 -2 -18 -9 -23 -32 -23 -40 0 -56 27
-32 54 22 25 39 26 56 7z"/>
<path d="M1825 632 c-32 -7 -45 -22 -45 -52 0 -29 27 -60 53 -60 21 0 57 35
57 54 0 25 -43 64 -65 58z m35 -26 c20 -25 8 -61 -22 -64 -37 -4 -57 31 -32
59 20 23 37 24 54 5z"/>
</g>
</svg>
